# xmcd
#
# Track frame offsets: 
#        182
#        13097
#        28647
#        42230
#        60815
#        72722
#        87182
#        106210
#        122907
#        140900
#        152845
#        168082
#        179827
#        190675
#        204170
#        219115
#        233140
#        248717
#        259377
#        269300
#
# Disc length: 3734 seconds
#
# Revision: 2
# Processed by: cddbd v1.4PL0 Copyright (c) Steve Scherf et al.
# Submitted via: ExactAudioCopy v0.95a3
#
DISCID=1a0e9414
DTITLE=Kenny Rogers - The Best Of
DYEAR=1996
DGENRE=Country
TTITLE0=Reuben James
TTITLE1=For the good times
TTITLE2=Ruby, Don't take your love to town
TTITLE3=I belive in music
TTITLE4=Me and Bobby McGhee
TTITLE5=Sunshine
TTITLE6=The King of Oak Street
TTITLE7=Tulsa Turnaround
TTITLE8=Something's Burning
TTITLE9=A poem for my little lady
TTITLE10=Tell it all brother
TTITLE11=Calico sliver
TTITLE12=She even woke me up to say goodbye
TTITLE13=Sleep come easy
TTITLE14=Heed the call
TTITLE15=But you know I love you
TTITLE16=My washington woman
TTITLE17=Trying just as hard
TTITLE18=Where does our Rosie go?
TTITLE19=Always leaving Always gone
EXTD=
EXTT0=
EXTT1=
EXTT2=
EXTT3=
EXTT4=
EXTT5=
EXTT6=
EXTT7=
EXTT8=
EXTT9=
EXTT10=
EXTT11=
EXTT12=
EXTT13=
EXTT14=
EXTT15=
EXTT16=
EXTT17=
EXTT18=
EXTT19=
PLAYORDER=
